<svg width="9" height="9" viewBox="0 0 9 9" fill="none" xmlns="http://www.w3.org/2000/svg">
<path d="M4.5 4.78125C3.31125 4.78125 2.34375 3.81375 2.34375 2.625C2.34375 1.43625 3.31125 0.46875 4.5 0.46875C5.68875 0.46875 6.65625 1.43625 6.65625 2.625C6.65625 3.81375 5.68875 4.78125 4.5 4.78125ZM4.5 1.03125C3.6225 1.03125 2.90625 1.7475 2.90625 2.625C2.90625 3.5025 3.6225 4.21875 4.5 4.21875C5.3775 4.21875 6.09375 3.5025 6.09375 2.625C6.09375 1.7475 5.3775 1.03125 4.5 1.03125Z" fill="#868686"/>
<path d="M1.27734 8.53125C1.12359 8.53125 0.996094 8.40375 0.996094 8.25C0.996094 6.64875 2.56734 5.34375 4.49859 5.34375C4.87734 5.34375 5.24859 5.39251 5.60859 5.49376C5.75859 5.53501 5.84485 5.68875 5.8036 5.83875C5.76235 5.98875 5.60859 6.07501 5.45859 6.03376C5.15109 5.94751 4.82859 5.90625 4.49859 5.90625C2.87859 5.90625 1.55859 6.95625 1.55859 8.25C1.55859 8.40375 1.43109 8.53125 1.27734 8.53125Z" fill="#868686"/>
<path d="M6.75 8.53125C6.3075 8.53125 5.88749 8.36626 5.56124 8.07001C5.42999 7.95751 5.31375 7.81875 5.22375 7.665C5.05875 7.395 4.96875 7.07625 4.96875 6.75C4.96875 6.28125 5.14875 5.8425 5.47125 5.50875C5.80875 5.16 6.2625 4.96875 6.75 4.96875C7.26 4.96875 7.74375 5.18626 8.07375 5.56126C8.36625 5.88751 8.53125 6.3075 8.53125 6.75C8.53125 6.8925 8.5125 7.035 8.475 7.17C8.4375 7.33875 8.36625 7.515 8.26875 7.66875C7.9575 8.20125 7.3725 8.53125 6.75 8.53125ZM6.75 5.53125C6.41625 5.53125 6.10875 5.66249 5.87626 5.89874C5.65501 6.12749 5.53125 6.4275 5.53125 6.75C5.53125 6.97125 5.59125 7.18874 5.7075 7.37624C5.7675 7.48124 5.84624 7.57499 5.93624 7.65374C6.16124 7.85999 6.45 7.9725 6.75 7.9725C7.17375 7.9725 7.575 7.7475 7.7925 7.38375C7.85625 7.27875 7.905 7.15876 7.93125 7.04251C7.9575 6.94501 7.96875 6.85125 7.96875 6.75375C7.96875 6.45375 7.85625 6.16501 7.65375 5.94001C7.42875 5.67751 7.09875 5.53125 6.75 5.53125Z" fill="#868686"/>
<path d="M7.31265 7.02368H6.19141C6.03766 7.02368 5.91016 6.89618 5.91016 6.74243C5.91016 6.58868 6.03766 6.46118 6.19141 6.46118H7.31265C7.4664 6.46118 7.5939 6.58868 7.5939 6.74243C7.5939 6.89618 7.4664 7.02368 7.31265 7.02368Z" fill="#868686"/>
<path d="M6.75 7.59756C6.59625 7.59756 6.46875 7.47006 6.46875 7.31631V6.19507C6.46875 6.04132 6.59625 5.91382 6.75 5.91382C6.90375 5.91382 7.03125 6.04132 7.03125 6.19507V7.31631C7.03125 7.47381 6.90375 7.59756 6.75 7.59756Z" fill="#868686"/>
</svg>
