<svg width="14" height="14" viewBox="0 0 14 14" fill="none" xmlns="http://www.w3.org/2000/svg">
<path d="M7 1L7.70711 0.292893C7.51957 0.105357 7.26522 -2.50675e-07 7 -2.62268e-07C6.73478 -2.73861e-07 6.48043 0.105357 6.29289 0.292893L7 1ZM6 13C6 13.5523 6.44772 14 7 14C7.55228 14 8 13.5523 8 13L6 13ZM13.7071 6.29289L7.70711 0.292893L6.29289 1.70711L12.2929 7.70711L13.7071 6.29289ZM6.29289 0.292893L0.292894 6.29289L1.70711 7.70711L7.70711 1.70711L6.29289 0.292893ZM6 1L6 13L8 13L8 1L6 1Z" fill="#FFD60A"/>
</svg>
