<svg width="24" height="24" viewBox="0 0 24 24" fill="none" xmlns="http://www.w3.org/2000/svg">
<path d="M19.86 8.08997C19.86 8.50997 19.83 8.91997 19.78 9.30997C19.32 9.10997 18.82 8.99997 18.29 8.99997C17.07 8.99997 15.99 9.58996 15.32 10.49C14.64 9.58996 13.56 8.99997 12.34 8.99997C10.29 8.99997 8.63 10.67 8.63 12.74C8.63 15.42 10.05 17.47 11.63 18.86C11.58 18.89 11.53 18.9 11.48 18.92C11.18 19.03 10.68 19.03 10.38 18.92C7.79 18.03 2 14.35 2 8.08997C2 5.32997 4.21999 3.09998 6.95999 3.09998C8.58999 3.09998 10.03 3.87997 10.93 5.08997C11.84 3.87997 13.28 3.09998 14.9 3.09998C17.64 3.09998 19.86 5.32997 19.86 8.08997Z" stroke="#1C1C1E" stroke-width="1.5" stroke-linecap="round" stroke-linejoin="round"/>
<path d="M21.9989 12.74C21.9989 17.42 17.6689 20.18 15.7289 20.84C15.4989 20.92 15.1289 20.92 14.8989 20.84C14.0689 20.56 12.7989 19.89 11.6289 18.86C10.0489 17.47 8.62891 15.42 8.62891 12.74C8.62891 10.67 10.2889 9 12.3389 9C13.5589 9 14.6389 9.58999 15.3189 10.49C15.9889 9.58999 17.0689 9 18.2889 9C18.8189 9 19.3189 9.11 19.7789 9.31C21.0889 9.89 21.9989 11.2 21.9989 12.74Z" stroke="#1C1C1E" stroke-width="1.5" stroke-linecap="round" stroke-linejoin="round"/>
</svg>
