<svg width="84" height="84" viewBox="0 0 84 84" fill="none" xmlns="http://www.w3.org/2000/svg">
<rect x="30.7188" width="61.4363" height="61.4363" rx="30.7182" transform="rotate(30 30.7188 0)" stroke="#3395FF" stroke-width="3"/>
<path d="M50.0992 24.7463L41.2124 40.1386L39.1489 38.9471L43.6313 31.1834L42.2443 30.3826L38.172 37.436L36.1254 36.2543L44.475 21.7924L46.5216 22.974L43.2599 28.6235L44.6469 29.4242L48.0356 23.5549L50.0992 24.7463ZM42.3984 22.4203L36.666 32.3491L30.543 28.8139L36.2754 18.8851L42.3984 22.4203ZM37.3019 21.7556L33.5324 28.2846L35.6298 29.4955L39.3993 22.9665L37.3019 21.7556ZM60.2582 32.7541L59.2718 34.4625L56.1257 32.6461C55.2732 34.24 55.5343 36.522 57.6328 38.5905L55.6778 39.672C54.1654 38.1899 53.485 36.4777 53.5119 34.7905C51.9981 35.811 50.0886 36.2083 47.9555 35.6646L47.8905 33.3943C50.7337 34.1338 52.8933 33.069 53.9438 31.3863L50.7976 29.5699L51.784 27.8615L54.9301 29.678L55.8481 28.088L58.0469 29.3575L57.129 30.9475L60.2582 32.7541ZM64.9312 33.3321L59.5698 42.6182L57.4048 41.3682L62.7661 32.0821L64.9312 33.3321ZM54.1896 39.8277C57.4541 41.7124 58.842 43.9571 57.7944 45.8105C56.7033 47.6614 54.0752 47.5649 50.8107 45.6801C47.5293 43.7856 46.1317 41.5579 47.2059 39.6973C48.2704 37.8536 50.9082 37.9331 54.1896 39.8277ZM53.2228 41.5022C51.1592 40.3108 49.8495 40.1184 49.371 40.9473C48.8827 41.793 49.6944 42.848 51.758 44.0394C53.8215 45.2308 55.1749 45.4258 55.6632 44.5801C56.1417 43.7513 55.2864 42.6936 53.2228 41.5022Z" fill="#3395FF"/>
<path d="M31.0268 37.6634C33.2765 38.9622 34.1678 41.1683 33.0936 43.0289C32.2245 44.5343 30.4525 45.0449 28.5983 44.4479L27.9537 45.5643C29.1937 46.19 30.4666 46.7783 31.6842 47.267L30.9451 48.9377C27.4598 47.6697 23.8856 45.6964 21.3146 44.212L22.0811 42.3767C23.1467 42.9919 24.3948 43.7012 25.7301 44.4158L26.4234 43.2148C24.9188 41.8951 24.4461 40.0773 25.3468 38.5563C26.4041 36.6859 28.7603 36.3548 31.0268 37.6634ZM30.0893 39.2872C28.9801 38.6693 27.8993 38.7445 27.3596 39.7184C26.8056 40.6389 27.2614 41.6463 28.3608 42.2811C29.4603 42.9158 30.5268 42.7873 31.0639 41.857C31.6205 40.8929 31.179 39.9389 30.0893 39.2872ZM39.0576 41.4881L36.2646 46.3256L38.2267 47.4584L37.1916 49.2514L35.2295 48.1186L32.2803 53.2268L30.1152 51.9768L36.8925 40.2381L39.0576 41.4881ZM31.8671 55.1533L30.871 56.8786L20.0288 50.6188L22.5581 46.238L24.7231 47.488L23.1899 50.1435L31.8671 55.1533ZM49.2669 63.237L48.2415 65.013L34.1517 56.8782L35.177 55.1022L38.7798 57.1823L40.1373 54.8312L38.1583 53.6886L41.1465 48.5127L49.8575 53.542L50.8146 51.8844L42.0867 46.8453L43.0828 45.1201L53.9419 51.3896L50.9927 56.4978L42.3155 51.488L41.3292 53.1964L50.3616 58.4112L49.3557 60.1534L47.1737 58.8937L45.8163 61.2448L49.2669 63.237ZM40.8772 58.3932L43.702 60.0241L45.0594 57.673L42.2347 56.0421L40.8772 58.3932Z" fill="#3395FF"/>
</svg>
