<svg width="40" height="40" viewBox="0 0 40 40" fill="none" xmlns="http://www.w3.org/2000/svg">
<path d="M30 16V21C30 25 28 27 24 27H23.5C23.19 27 22.89 27.15 22.7 27.4L21.2 29.4C20.54 30.28 19.46 30.28 18.8 29.4L17.3 27.4C17.14 27.18 16.77 27 16.5 27H16C12 27 10 26 10 21V16C10 12 12 10 16 10H20" stroke="#292D32" stroke-width="1.5" stroke-miterlimit="10" stroke-linecap="round" stroke-linejoin="round"/>
<path d="M23.1997 12.62C22.8697 11.63 23.2597 10.41 24.3397 10.07C24.8997 9.89999 25.5997 10.04 25.9997 10.57C26.3797 10.02 27.0997 9.89999 27.6597 10.07C28.7397 10.4 29.1297 11.63 28.7997 12.62C28.2897 14.19 26.4997 15 25.9997 15C25.4997 15 23.7297 14.2 23.1997 12.62Z" stroke="#292D32" stroke-width="1.5" stroke-linecap="round" stroke-linejoin="round"/>
<path d="M23.9945 19H24.0035" stroke="#292D32" stroke-width="2" stroke-linecap="round" stroke-linejoin="round"/>
<path d="M19.9945 19H20.0035" stroke="#292D32" stroke-width="2" stroke-linecap="round" stroke-linejoin="round"/>
<path d="M15.9945 19H16.0035" stroke="#292D32" stroke-width="2" stroke-linecap="round" stroke-linejoin="round"/>
</svg>
