<svg width="40" height="40" viewBox="0 0 40 40" fill="none" xmlns="http://www.w3.org/2000/svg">
<path d="M27.86 16.09C27.86 16.51 27.83 16.92 27.78 17.31C27.32 17.11 26.82 17 26.29 17C25.07 17 23.99 17.59 23.32 18.49C22.64 17.59 21.56 17 20.34 17C18.29 17 16.63 18.67 16.63 20.74C16.63 23.42 18.05 25.47 19.63 26.86C19.58 26.89 19.53 26.9 19.48 26.92C19.18 27.03 18.68 27.03 18.38 26.92C15.79 26.03 10 22.35 10 16.09C10 13.33 12.22 11.1 14.96 11.1C16.59 11.1 18.03 11.88 18.93 13.09C19.84 11.88 21.28 11.1 22.9 11.1C25.64 11.1 27.86 13.33 27.86 16.09Z" stroke="#292D32" stroke-width="1.5" stroke-linecap="round" stroke-linejoin="round"/>
<path d="M29.9989 20.74C29.9989 25.42 25.6689 28.18 23.7289 28.84C23.4989 28.92 23.1289 28.92 22.8989 28.84C22.0689 28.56 20.7989 27.89 19.6289 26.86C18.0489 25.47 16.6289 23.42 16.6289 20.74C16.6289 18.67 18.2889 17 20.3389 17C21.5589 17 22.6389 17.59 23.3189 18.49C23.9889 17.59 25.0689 17 26.2889 17C26.8189 17 27.3189 17.11 27.7789 17.31C29.0889 17.89 29.9989 19.2 29.9989 20.74Z" stroke="#292D32" stroke-width="1.5" stroke-linecap="round" stroke-linejoin="round"/>
</svg>
