<svg width="51" height="50" viewBox="0 0 51 50" fill="none" xmlns="http://www.w3.org/2000/svg">
<path d="M32.85 1.5H18.15C5.9 1.5 1 6.29103 1 18.2686V32.6417C1 41.6967 3.793 46.6555 10.457 48.5C10.996 42.2717 17.5375 37.3608 25.5 37.3608C33.4625 37.3608 40.004 42.2717 40.543 48.5C47.207 46.6555 50 41.6967 50 32.6417V18.2686C50 6.29103 45.1 1.5 32.85 1.5ZM25.5 30.6534C20.649 30.6534 16.729 26.7967 16.729 22.0536C16.729 17.3104 20.649 13.4776 25.5 13.4776C30.351 13.4776 34.271 17.3104 34.271 22.0536C34.271 26.7967 30.351 30.6534 25.5 30.6534Z" stroke="#636366" stroke-width="2" stroke-linecap="round" stroke-linejoin="round"/>
</svg>
