<svg width="59" height="48" viewBox="0 0 59 48" fill="none" xmlns="http://www.w3.org/2000/svg">
<rect y="13.75" width="16.875" height="1.875" fill="#FCAF16"/>
<path d="M1.8321 4.27347C1.69992 3.43777 1.017 2.83843 0.692069 2.64322C1.22073 3.07057 0.873813 5.39723 0.77468 6.12531C0.675547 6.85338 0.245972 8.73687 1.51818 10.1139C2.79038 11.4909 4.65656 11.3856 5.78089 11.1585C6.875 10.9375 8.24269 10.0981 8.67227 8.16708C9.10184 6.2361 7.69746 4.44758 5.78089 3.22884C4.24763 2.25386 3.4788 0.670038 3.28605 0C2.01715 1.25355 1.78804 3.37129 1.8321 4.27347Z" fill="#01499A"/>
<path d="M19.689 28.664C19.545 28.664 19.445 28.636 19.389 28.58C19.333 28.524 19.261 28.412 19.173 28.244L15.885 22.316V28.232C15.885 28.376 15.853 28.484 15.789 28.556C15.725 28.628 15.613 28.664 15.453 28.664H14.277C14.117 28.664 14.005 28.628 13.941 28.556C13.877 28.484 13.845 28.376 13.845 28.232V19.748C13.845 19.604 13.877 19.496 13.941 19.424C14.005 19.352 14.117 19.316 14.277 19.316H15.717C15.861 19.316 15.961 19.344 16.017 19.4C16.073 19.456 16.145 19.568 16.233 19.736L19.149 25.112V19.748C19.149 19.604 19.181 19.496 19.245 19.424C19.309 19.352 19.421 19.316 19.581 19.316H20.757C20.917 19.316 21.029 19.352 21.093 19.424C21.157 19.496 21.189 19.604 21.189 19.748V28.232C21.189 28.376 21.157 28.484 21.093 28.556C21.029 28.628 20.917 28.664 20.757 28.664H19.689ZM22.5861 28.652C22.4421 28.652 22.3341 28.62 22.2621 28.556C22.1901 28.492 22.1541 28.38 22.1541 28.22V27.452C22.1541 27.292 22.1901 27.18 22.2621 27.116C22.3341 27.052 22.4421 27.02 22.5861 27.02H23.3541V20.708H22.5861C22.4421 20.708 22.3341 20.676 22.2621 20.612C22.1901 20.548 22.1541 20.436 22.1541 20.276V19.748C22.1541 19.588 22.1901 19.476 22.2621 19.412C22.3341 19.348 22.4421 19.316 22.5861 19.316H26.1621C26.3061 19.316 26.4141 19.348 26.4861 19.412C26.5581 19.476 26.5941 19.588 26.5941 19.748V20.276C26.5941 20.436 26.5581 20.548 26.4861 20.612C26.4141 20.676 26.3061 20.708 26.1621 20.708H25.3941V27.02H26.1621C26.3061 27.02 26.4141 27.052 26.4861 27.116C26.5581 27.18 26.5941 27.292 26.5941 27.452V28.22C26.5941 28.38 26.5581 28.492 26.4861 28.556C26.4141 28.62 26.3061 28.652 26.1621 28.652H22.5861Z" fill="#01499A"/>
<path d="M16.789 33.944V42.376H18.117C18.501 42.376 18.869 42.312 19.221 42.184C19.573 42.0453 19.8823 41.8213 20.149 41.512C20.4263 41.2027 20.645 40.7867 20.805 40.264C20.965 39.7413 21.0397 39.096 21.029 38.328C21.0183 37.4747 20.933 36.7653 20.773 36.2C20.613 35.6347 20.3997 35.1867 20.133 34.856C19.8663 34.5147 19.557 34.28 19.205 34.152C18.853 34.0133 18.4797 33.944 18.085 33.944H16.789ZM18.581 32.088C20.3517 32.088 21.653 32.616 22.485 33.672C23.317 34.728 23.733 36.28 23.733 38.328C23.733 39.2133 23.6317 40.04 23.429 40.808C23.2263 41.5653 22.9117 42.2213 22.485 42.776C22.069 43.3307 21.5357 43.7627 20.885 44.072C20.2343 44.392 19.4663 44.552 18.581 44.552H14.661C14.4477 44.552 14.2983 44.504 14.213 44.408C14.1277 44.312 14.085 44.168 14.085 43.976V32.664C14.085 32.472 14.1277 32.328 14.213 32.232C14.2983 32.136 14.4477 32.088 14.661 32.088H18.581ZM29.152 44.696C28.352 44.696 27.6747 44.6 27.12 44.408C26.5653 44.2267 26.112 43.9707 25.76 43.64C25.4187 43.3093 25.1733 42.9253 25.024 42.488C24.8747 42.0507 24.8 41.5813 24.8 41.08V37.832C24.8 37.3307 24.8747 36.8613 25.024 36.424C25.1733 35.9867 25.4187 35.6027 25.76 35.272C26.112 34.9413 26.5653 34.6853 27.12 34.504C27.6747 34.312 28.352 34.216 29.152 34.216C29.9627 34.216 30.6453 34.312 31.2 34.504C31.7547 34.6853 32.2027 34.9413 32.544 35.272C32.8853 35.6027 33.1307 35.9867 33.28 36.424C33.44 36.8613 33.52 37.3307 33.52 37.832V41.08C33.52 41.5813 33.44 42.0507 33.28 42.488C33.1307 42.9253 32.8853 43.3093 32.544 43.64C32.2027 43.9707 31.7547 44.2267 31.2 44.408C30.6453 44.6 29.9627 44.696 29.152 44.696ZM30.96 37.576C30.96 36.9787 30.8 36.552 30.48 36.296C30.1707 36.04 29.7333 35.912 29.168 35.912C28.592 35.912 28.144 36.04 27.824 36.296C27.5147 36.552 27.36 36.9787 27.36 37.576V41C27.36 41.5973 27.5147 42.024 27.824 42.28C28.144 42.536 28.592 42.664 29.168 42.664C29.7333 42.664 30.1707 42.536 30.48 42.28C30.8 42.024 30.96 41.5973 30.96 41V37.576ZM37.7544 43.976C37.7544 44.168 37.7117 44.312 37.6264 44.408C37.541 44.504 37.3917 44.552 37.1784 44.552H35.7704C35.557 44.552 35.4077 44.504 35.3224 44.408C35.237 44.312 35.1944 44.168 35.1944 43.976V34.904C35.1944 34.712 35.237 34.568 35.3224 34.472C35.4077 34.376 35.557 34.328 35.7704 34.328H37.1784C37.3917 34.328 37.541 34.376 37.6264 34.472C37.7117 34.568 37.7544 34.712 37.7544 34.904V35.16C38.3304 34.552 39.0717 34.248 39.9784 34.248C40.0637 34.248 40.165 34.2587 40.2824 34.28C40.3997 34.2907 40.501 34.3067 40.5864 34.328C40.8104 34.392 40.9384 34.4667 40.9704 34.552C41.0024 34.6373 41.0077 34.7813 40.9864 34.984L40.9064 35.576C40.8744 35.768 40.821 35.912 40.7464 36.008C40.6717 36.104 40.5384 36.12 40.3464 36.056C40.101 35.9707 39.8397 35.9333 39.5624 35.944C39.0504 35.9653 38.6184 36.104 38.2664 36.36C37.925 36.616 37.7544 37.032 37.7544 37.608V43.976ZM56.2238 43.976C56.2238 44.168 56.1811 44.312 56.0958 44.408C56.0104 44.504 55.8611 44.552 55.6478 44.552H54.2398C54.0264 44.552 53.8771 44.504 53.7918 44.408C53.7064 44.312 53.6638 44.168 53.6638 43.976V37.768C53.6638 37.224 53.5038 36.8293 53.1838 36.584C52.8744 36.3387 52.5118 36.216 52.0958 36.216C51.6798 36.216 51.3171 36.3387 51.0078 36.584C50.6984 36.8293 50.5438 37.224 50.5438 37.768V43.976C50.5438 44.168 50.5011 44.312 50.4158 44.408C50.3304 44.504 50.1811 44.552 49.9678 44.552H48.5598C48.3464 44.552 48.1971 44.504 48.1118 44.408C48.0264 44.312 47.9838 44.168 47.9838 43.976V37.768C47.9838 37.224 47.8238 36.8293 47.5038 36.584C47.1944 36.3387 46.8318 36.216 46.4158 36.216C45.9998 36.216 45.6371 36.3387 45.3278 36.584C45.0184 36.8293 44.8638 37.224 44.8638 37.768V43.976C44.8638 44.168 44.8211 44.312 44.7358 44.408C44.6504 44.504 44.5011 44.552 44.2878 44.552H42.8798C42.6664 44.552 42.5171 44.504 42.4318 44.408C42.3464 44.312 42.3038 44.168 42.3038 43.976V34.904C42.3038 34.712 42.3464 34.568 42.4318 34.472C42.5171 34.376 42.6664 34.328 42.8798 34.328H44.2878C44.5011 34.328 44.6504 34.376 44.7358 34.472C44.8211 34.568 44.8638 34.712 44.8638 34.904V35.32C45.0878 34.9893 45.4238 34.7227 45.8718 34.52C46.3304 34.3173 46.8371 34.216 47.3918 34.216C48.0531 34.216 48.5971 34.3493 49.0238 34.616C49.4611 34.8827 49.8024 35.2187 50.0478 35.624C50.3464 35.176 50.7518 34.8293 51.2638 34.584C51.7758 34.3387 52.2771 34.216 52.7678 34.216C53.4078 34.216 53.9464 34.3013 54.3838 34.472C54.8211 34.6427 55.1731 34.8827 55.4398 35.192C55.7171 35.5013 55.9144 35.88 56.0318 36.328C56.1598 36.7653 56.2238 37.256 56.2238 37.8V43.976Z" fill="#01499A"/>
<path d="M3.35372 18.75L0 21.7476V26.9253C0 26.9253 0 31.9394 5.79279 31.9394C11.5856 31.9394 11.7685 26.9253 11.7685 26.9253V20.9301C11.7933 19.965 11.9461 19.5304 12.4392 18.9135V18.75H7.80502V18.9135C8.21563 19.5595 8.4382 19.9302 8.41479 20.9301V26.9253C8.41479 26.9253 8.41479 29.1598 5.79279 29.1598C3.17079 29.1598 3.35372 26.9253 3.35372 26.9253V18.75Z" fill="#01499A"/>
</svg>
